# MagicaVoxel @ Ephtracy

# material
mtllib flag.mtl
usemtl palette

# normals
vn -1 0 0
vn 1 0 0
vn 0 0 1
vn 0 0 -1
vn 0 -1 0
vn 0 1 0

# texcoords
vt 0.0214844 0.5
vt 0.958984 0.5

# verts
v -55 0 -2
v -55 0 -4
v -55 0 -6
v -55 2 -2
v -55 2 -4
v -55 2 -6
v -54 0 -6
v -54 0 -7
v -54 2 -6
v -54 2 -7
v -52 0 -7
v -52 0 -9
v -52 2 -7
v -52 2 -9
v -51 0 -9
v -51 0 -10
v -51 2 -9
v -51 2 -10
v -50 0 -10
v -50 0 -11
v -50 2 -10
v -50 2 -11
v -48 0 -11
v -48 0 -12
v -48 2 -11
v -48 2 -12
v -47 0 -12
v -47 0 -13
v -47 2 -12
v -47 2 -13
v -46 0 -13
v -46 0 -15
v -46 2 -13
v -46 2 -15
v -44 0 -15
v -44 0 -17
v -44 2 -15
v -44 2 -17
v -43 0 -17
v -43 0 -18
v -43 2 -17
v -43 2 -18
v -42 0 -18
v -42 0 -19
v -42 2 -18
v -42 2 -19
v -41 0 -19
v -41 0 -21
v -41 2 -19
v -41 2 -21
v -39 0 -21
v -39 0 -25
v -39 2 -21
v -39 2 -25
v -38 0 -25
v -38 0 -26
v -38 2 -25
v -38 2 -26
v -37 0 -26
v -37 0 -29
v -37 2 -26
v -37 2 -29
v -36 0 -29
v -36 0 -31
v -36 2 -29
v -36 2 -31
v -35 0 -31
v -35 0 -32
v -35 2 -31
v -35 2 -32
v -33 0 -32
v -33 0 -33
v -33 2 -32
v -33 2 -33
v -31 0 -33
v -31 0 -34
v -31 2 -33
v -31 2 -34
v -26 0 -34
v -26 0 -35
v -26 2 -34
v -26 2 -35
v -24 0 -35
v -24 0 -36
v -24 2 -35
v -24 2 -36
v -23 0 -36
v -23 0 -37
v -23 2 -36
v -23 2 -37
v -22 0 -37
v -22 0 -41
v -22 2 -37
v -22 2 -41
v -21 0 -41
v -21 0 -42
v -21 2 -41
v -21 2 -42
v -20 0 -42
v -20 0 -43
v -20 2 -42
v -20 2 -43
v -19 0 -43
v -19 0 -44
v -19 2 -43
v -19 2 -44
v -18 0 -44
v -18 0 -45
v -18 2 -44
v -18 2 -45
v -14 0 -45
v -14 0 -46
v -14 2 -45
v -14 2 -46
v -12 0 -45
v -12 0 -46
v -12 2 -45
v -12 2 -46
v -10 0 -44
v -10 0 -45
v -10 2 -44
v -10 2 -45
v -9 0 -4
v -9 0 -5
v -9 0 -42
v -9 0 -44
v -9 2 -4
v -9 2 -5
v -9 2 -42
v -9 2 -44
v -8 0 -5
v -8 0 -7
v -8 0 -41
v -8 0 -42
v -8 2 -5
v -8 2 -7
v -8 2 -41
v -8 2 -42
v -7 0 -7
v -7 0 -12
v -7 0 -39
v -7 0 -41
v -7 2 -7
v -7 2 -12
v -7 2 -39
v -7 2 -41
v -6 0 -12
v -6 0 -14
v -6 0 -37
v -6 0 -39
v -6 2 -12
v -6 2 -14
v -6 2 -37
v -6 2 -39
v -5 0 -14
v -5 0 -18
v -5 0 -35
v -5 0 -37
v -5 2 -14
v -5 2 -18
v -5 2 -35
v -5 2 -37
v -4 0 -18
v -4 0 -35
v -4 2 -18
v -4 2 -35
v 63 0 -2
v 63 0 -4
v 63 2 -2
v 63 2 -4
v -55 0 -2
v -55 2 -2
v 63 0 -2
v 63 2 -2
v -9 0 -5
v -9 2 -5
v -8 0 -5
v -8 2 -5
v -8 0 -7
v -8 2 -7
v -7 0 -7
v -7 2 -7
v -7 0 -12
v -7 2 -12
v -6 0 -12
v -6 2 -12
v -6 0 -14
v -6 2 -14
v -5 0 -14
v -5 2 -14
v -5 0 -18
v -5 2 -18
v -4 0 -18
v -4 2 -18
v -9 0 -4
v -9 2 -4
v 63 0 -4
v 63 2 -4
v -55 0 -6
v -55 2 -6
v -54 0 -6
v -54 2 -6
v -54 0 -7
v -54 2 -7
v -52 0 -7
v -52 2 -7
v -52 0 -9
v -52 2 -9
v -51 0 -9
v -51 2 -9
v -51 0 -10
v -51 2 -10
v -50 0 -10
v -50 2 -10
v -50 0 -11
v -50 2 -11
v -48 0 -11
v -48 2 -11
v -48 0 -12
v -48 2 -12
v -47 0 -12
v -47 2 -12
v -47 0 -13
v -47 2 -13
v -46 0 -13
v -46 2 -13
v -46 0 -15
v -46 2 -15
v -44 0 -15
v -44 2 -15
v -44 0 -17
v -44 2 -17
v -43 0 -17
v -43 2 -17
v -43 0 -18
v -43 2 -18
v -42 0 -18
v -42 2 -18
v -42 0 -19
v -42 2 -19
v -41 0 -19
v -41 2 -19
v -41 0 -21
v -41 2 -21
v -39 0 -21
v -39 2 -21
v -39 0 -25
v -39 2 -25
v -38 0 -25
v -38 2 -25
v -38 0 -26
v -38 2 -26
v -37 0 -26
v -37 2 -26
v -37 0 -29
v -37 2 -29
v -36 0 -29
v -36 2 -29
v -36 0 -31
v -36 2 -31
v -35 0 -31
v -35 2 -31
v -35 0 -32
v -35 2 -32
v -33 0 -32
v -33 2 -32
v -33 0 -33
v -33 2 -33
v -31 0 -33
v -31 2 -33
v -31 0 -34
v -31 2 -34
v -26 0 -34
v -26 2 -34
v -26 0 -35
v -26 2 -35
v -24 0 -35
v -24 2 -35
v -5 0 -35
v -5 2 -35
v -4 0 -35
v -4 2 -35
v -24 0 -36
v -24 2 -36
v -23 0 -36
v -23 2 -36
v -23 0 -37
v -23 2 -37
v -22 0 -37
v -22 2 -37
v -6 0 -37
v -6 2 -37
v -5 0 -37
v -5 2 -37
v -7 0 -39
v -7 2 -39
v -6 0 -39
v -6 2 -39
v -22 0 -41
v -22 2 -41
v -21 0 -41
v -21 2 -41
v -8 0 -41
v -8 2 -41
v -7 0 -41
v -7 2 -41
v -21 0 -42
v -21 2 -42
v -20 0 -42
v -20 2 -42
v -9 0 -42
v -9 2 -42
v -8 0 -42
v -8 2 -42
v -20 0 -43
v -20 2 -43
v -19 0 -43
v -19 2 -43
v -19 0 -44
v -19 2 -44
v -18 0 -44
v -18 2 -44
v -10 0 -44
v -10 2 -44
v -9 0 -44
v -9 2 -44
v -18 0 -45
v -18 2 -45
v -14 0 -45
v -14 2 -45
v -12 0 -45
v -12 2 -45
v -10 0 -45
v -10 2 -45
v -14 0 -46
v -14 2 -46
v -12 0 -46
v -12 2 -46
v -55 0 -2
v 63 0 -2
v -55 0 -4
v -9 0 -4
v 63 0 -4
v -9 0 -5
v -8 0 -5
v -55 0 -6
v -54 0 -6
v -54 0 -7
v -52 0 -7
v -8 0 -7
v -7 0 -7
v -52 0 -9
v -51 0 -9
v -51 0 -10
v -50 0 -10
v -50 0 -11
v -48 0 -11
v -48 0 -12
v -47 0 -12
v -7 0 -12
v -6 0 -12
v -47 0 -13
v -46 0 -13
v -6 0 -14
v -5 0 -14
v -46 0 -15
v -44 0 -15
v -44 0 -17
v -43 0 -17
v -43 0 -18
v -42 0 -18
v -5 0 -18
v -4 0 -18
v -42 0 -19
v -41 0 -19
v -41 0 -21
v -39 0 -21
v -39 0 -25
v -38 0 -25
v -38 0 -26
v -37 0 -26
v -37 0 -29
v -36 0 -29
v -36 0 -31
v -35 0 -31
v -35 0 -32
v -33 0 -32
v -33 0 -33
v -31 0 -33
v -31 0 -34
v -26 0 -34
v -26 0 -35
v -24 0 -35
v -5 0 -35
v -4 0 -35
v -24 0 -36
v -23 0 -36
v -23 0 -37
v -22 0 -37
v -6 0 -37
v -5 0 -37
v -7 0 -39
v -6 0 -39
v -22 0 -41
v -21 0 -41
v -8 0 -41
v -7 0 -41
v -21 0 -42
v -20 0 -42
v -9 0 -42
v -8 0 -42
v -20 0 -43
v -19 0 -43
v -19 0 -44
v -18 0 -44
v -10 0 -44
v -9 0 -44
v -18 0 -45
v -14 0 -45
v -12 0 -45
v -10 0 -45
v -14 0 -46
v -12 0 -46
v -55 2 -2
v 63 2 -2
v -55 2 -4
v -9 2 -4
v 63 2 -4
v -9 2 -5
v -8 2 -5
v -55 2 -6
v -54 2 -6
v -54 2 -7
v -52 2 -7
v -8 2 -7
v -7 2 -7
v -52 2 -9
v -51 2 -9
v -51 2 -10
v -50 2 -10
v -50 2 -11
v -48 2 -11
v -48 2 -12
v -47 2 -12
v -7 2 -12
v -6 2 -12
v -47 2 -13
v -46 2 -13
v -6 2 -14
v -5 2 -14
v -46 2 -15
v -44 2 -15
v -44 2 -17
v -43 2 -17
v -43 2 -18
v -42 2 -18
v -5 2 -18
v -4 2 -18
v -42 2 -19
v -41 2 -19
v -41 2 -21
v -39 2 -21
v -39 2 -25
v -38 2 -25
v -38 2 -26
v -37 2 -26
v -37 2 -29
v -36 2 -29
v -36 2 -31
v -35 2 -31
v -35 2 -32
v -33 2 -32
v -33 2 -33
v -31 2 -33
v -31 2 -34
v -26 2 -34
v -26 2 -35
v -24 2 -35
v -5 2 -35
v -4 2 -35
v -24 2 -36
v -23 2 -36
v -23 2 -37
v -22 2 -37
v -6 2 -37
v -5 2 -37
v -7 2 -39
v -6 2 -39
v -22 2 -41
v -21 2 -41
v -8 2 -41
v -7 2 -41
v -21 2 -42
v -20 2 -42
v -9 2 -42
v -8 2 -42
v -20 2 -43
v -19 2 -43
v -19 2 -44
v -18 2 -44
v -10 2 -44
v -9 2 -44
v -18 2 -45
v -14 2 -45
v -12 2 -45
v -10 2 -45
v -14 2 -46
v -12 2 -46

# faces
f 4/1/1 2/1/1 1/1/1
f 5/2/1 3/2/1 2/2/1
f 5/1/1 2/1/1 4/1/1
f 6/2/1 3/2/1 5/2/1
f 9/2/1 8/2/1 7/2/1
f 10/2/1 8/2/1 9/2/1
f 13/2/1 12/2/1 11/2/1
f 14/2/1 12/2/1 13/2/1
f 17/2/1 16/2/1 15/2/1
f 18/2/1 16/2/1 17/2/1
f 21/2/1 20/2/1 19/2/1
f 22/2/1 20/2/1 21/2/1
f 25/2/1 24/2/1 23/2/1
f 26/2/1 24/2/1 25/2/1
f 29/2/1 28/2/1 27/2/1
f 30/2/1 28/2/1 29/2/1
f 33/2/1 32/2/1 31/2/1
f 34/2/1 32/2/1 33/2/1
f 37/2/1 36/2/1 35/2/1
f 38/2/1 36/2/1 37/2/1
f 41/2/1 40/2/1 39/2/1
f 42/2/1 40/2/1 41/2/1
f 45/2/1 44/2/1 43/2/1
f 46/2/1 44/2/1 45/2/1
f 49/2/1 48/2/1 47/2/1
f 50/2/1 48/2/1 49/2/1
f 53/2/1 52/2/1 51/2/1
f 54/2/1 52/2/1 53/2/1
f 57/2/1 56/2/1 55/2/1
f 58/2/1 56/2/1 57/2/1
f 61/2/1 60/2/1 59/2/1
f 62/2/1 60/2/1 61/2/1
f 65/2/1 64/2/1 63/2/1
f 66/2/1 64/2/1 65/2/1
f 69/2/1 68/2/1 67/2/1
f 70/2/1 68/2/1 69/2/1
f 73/2/1 72/2/1 71/2/1
f 74/2/1 72/2/1 73/2/1
f 77/2/1 76/2/1 75/2/1
f 78/2/1 76/2/1 77/2/1
f 81/2/1 80/2/1 79/2/1
f 82/2/1 80/2/1 81/2/1
f 85/2/1 84/2/1 83/2/1
f 86/2/1 84/2/1 85/2/1
f 89/2/1 88/2/1 87/2/1
f 90/2/1 88/2/1 89/2/1
f 93/2/1 92/2/1 91/2/1
f 94/2/1 92/2/1 93/2/1
f 97/2/1 96/2/1 95/2/1
f 98/2/1 96/2/1 97/2/1
f 101/2/1 100/2/1 99/2/1
f 102/2/1 100/2/1 101/2/1
f 105/2/1 104/2/1 103/2/1
f 106/2/1 104/2/1 105/2/1
f 109/2/1 108/2/1 107/2/1
f 110/2/1 108/2/1 109/2/1
f 113/2/1 112/2/1 111/2/1
f 114/2/1 112/2/1 113/2/1
f 115/2/2 116/2/2 117/2/2
f 117/2/2 116/2/2 118/2/2
f 119/2/2 120/2/2 121/2/2
f 121/2/2 120/2/2 122/2/2
f 123/2/2 124/2/2 127/2/2
f 127/2/2 124/2/2 128/2/2
f 125/2/2 126/2/2 129/2/2
f 129/2/2 126/2/2 130/2/2
f 131/2/2 132/2/2 135/2/2
f 135/2/2 132/2/2 136/2/2
f 133/2/2 134/2/2 137/2/2
f 137/2/2 134/2/2 138/2/2
f 139/2/2 140/2/2 143/2/2
f 143/2/2 140/2/2 144/2/2
f 141/2/2 142/2/2 145/2/2
f 145/2/2 142/2/2 146/2/2
f 147/2/2 148/2/2 151/2/2
f 151/2/2 148/2/2 152/2/2
f 149/2/2 150/2/2 153/2/2
f 153/2/2 150/2/2 154/2/2
f 155/2/2 156/2/2 159/2/2
f 159/2/2 156/2/2 160/2/2
f 157/2/2 158/2/2 161/2/2
f 161/2/2 158/2/2 162/2/2
f 163/2/2 164/2/2 165/2/2
f 165/2/2 164/2/2 166/2/2
f 167/1/2 168/1/2 169/1/2
f 169/1/2 168/1/2 170/1/2
f 173/1/3 172/1/3 171/1/3
f 174/1/3 172/1/3 173/1/3
f 177/2/3 176/2/3 175/2/3
f 178/2/3 176/2/3 177/2/3
f 181/2/3 180/2/3 179/2/3
f 182/2/3 180/2/3 181/2/3
f 185/2/3 184/2/3 183/2/3
f 186/2/3 184/2/3 185/2/3
f 189/2/3 188/2/3 187/2/3
f 190/2/3 188/2/3 189/2/3
f 193/2/3 192/2/3 191/2/3
f 194/2/3 192/2/3 193/2/3
f 195/1/4 196/1/4 197/1/4
f 197/1/4 196/1/4 198/1/4
f 199/2/4 200/2/4 201/2/4
f 201/2/4 200/2/4 202/2/4
f 203/2/4 204/2/4 205/2/4
f 205/2/4 204/2/4 206/2/4
f 207/2/4 208/2/4 209/2/4
f 209/2/4 208/2/4 210/2/4
f 211/2/4 212/2/4 213/2/4
f 213/2/4 212/2/4 214/2/4
f 215/2/4 216/2/4 217/2/4
f 217/2/4 216/2/4 218/2/4
f 219/2/4 220/2/4 221/2/4
f 221/2/4 220/2/4 222/2/4
f 223/2/4 224/2/4 225/2/4
f 225/2/4 224/2/4 226/2/4
f 227/2/4 228/2/4 229/2/4
f 229/2/4 228/2/4 230/2/4
f 231/2/4 232/2/4 233/2/4
f 233/2/4 232/2/4 234/2/4
f 235/2/4 236/2/4 237/2/4
f 237/2/4 236/2/4 238/2/4
f 239/2/4 240/2/4 241/2/4
f 241/2/4 240/2/4 242/2/4
f 243/2/4 244/2/4 245/2/4
f 245/2/4 244/2/4 246/2/4
f 247/2/4 248/2/4 249/2/4
f 249/2/4 248/2/4 250/2/4
f 251/2/4 252/2/4 253/2/4
f 253/2/4 252/2/4 254/2/4
f 255/2/4 256/2/4 257/2/4
f 257/2/4 256/2/4 258/2/4
f 259/2/4 260/2/4 261/2/4
f 261/2/4 260/2/4 262/2/4
f 263/2/4 264/2/4 265/2/4
f 265/2/4 264/2/4 266/2/4
f 267/2/4 268/2/4 269/2/4
f 269/2/4 268/2/4 270/2/4
f 271/2/4 272/2/4 273/2/4
f 273/2/4 272/2/4 274/2/4
f 275/2/4 276/2/4 277/2/4
f 277/2/4 276/2/4 278/2/4
f 279/2/4 280/2/4 281/2/4
f 281/2/4 280/2/4 282/2/4
f 283/2/4 284/2/4 285/2/4
f 285/2/4 284/2/4 286/2/4
f 287/2/4 288/2/4 289/2/4
f 289/2/4 288/2/4 290/2/4
f 291/2/4 292/2/4 293/2/4
f 293/2/4 292/2/4 294/2/4
f 295/2/4 296/2/4 297/2/4
f 297/2/4 296/2/4 298/2/4
f 299/2/4 300/2/4 301/2/4
f 301/2/4 300/2/4 302/2/4
f 303/2/4 304/2/4 305/2/4
f 305/2/4 304/2/4 306/2/4
f 307/2/4 308/2/4 309/2/4
f 309/2/4 308/2/4 310/2/4
f 311/2/4 312/2/4 313/2/4
f 313/2/4 312/2/4 314/2/4
f 315/2/4 316/2/4 317/2/4
f 317/2/4 316/2/4 318/2/4
f 319/2/4 320/2/4 321/2/4
f 321/2/4 320/2/4 322/2/4
f 323/2/4 324/2/4 325/2/4
f 325/2/4 324/2/4 326/2/4
f 327/2/4 328/2/4 329/2/4
f 329/2/4 328/2/4 330/2/4
f 331/2/4 332/2/4 333/2/4
f 333/2/4 332/2/4 334/2/4
f 335/2/4 336/2/4 337/2/4
f 337/2/4 336/2/4 338/2/4
f 341/1/5 340/1/5 339/1/5
f 342/1/5 340/1/5 341/1/5
f 343/1/5 340/1/5 342/1/5
f 344/2/5 342/2/5 341/2/5
f 346/2/5 344/2/5 341/2/5
f 346/2/5 345/2/5 344/2/5
f 347/2/5 345/2/5 346/2/5
f 348/2/5 345/2/5 347/2/5
f 349/2/5 345/2/5 348/2/5
f 350/2/5 345/2/5 349/2/5
f 352/2/5 351/2/5 350/2/5
f 352/2/5 350/2/5 349/2/5
f 353/2/5 351/2/5 352/2/5
f 354/2/5 351/2/5 353/2/5
f 355/2/5 351/2/5 354/2/5
f 356/2/5 351/2/5 355/2/5
f 357/2/5 351/2/5 356/2/5
f 358/2/5 351/2/5 357/2/5
f 359/2/5 351/2/5 358/2/5
f 360/2/5 351/2/5 359/2/5
f 362/2/5 361/2/5 360/2/5
f 362/2/5 360/2/5 359/2/5
f 363/2/5 361/2/5 362/2/5
f 364/2/5 361/2/5 363/2/5
f 366/2/5 364/2/5 363/2/5
f 366/2/5 365/2/5 364/2/5
f 367/2/5 365/2/5 366/2/5
f 368/2/5 365/2/5 367/2/5
f 369/2/5 365/2/5 368/2/5
f 370/2/5 365/2/5 369/2/5
f 371/2/5 365/2/5 370/2/5
f 372/2/5 365/2/5 371/2/5
f 374/2/5 373/2/5 372/2/5
f 374/2/5 372/2/5 371/2/5
f 375/2/5 373/2/5 374/2/5
f 376/2/5 373/2/5 375/2/5
f 377/2/5 373/2/5 376/2/5
f 378/2/5 373/2/5 377/2/5
f 379/2/5 373/2/5 378/2/5
f 380/2/5 373/2/5 379/2/5
f 381/2/5 373/2/5 380/2/5
f 382/2/5 373/2/5 381/2/5
f 383/2/5 373/2/5 382/2/5
f 384/2/5 373/2/5 383/2/5
f 385/2/5 373/2/5 384/2/5
f 386/2/5 373/2/5 385/2/5
f 387/2/5 373/2/5 386/2/5
f 388/2/5 373/2/5 387/2/5
f 389/2/5 373/2/5 388/2/5
f 390/2/5 373/2/5 389/2/5
f 391/2/5 373/2/5 390/2/5
f 392/2/5 373/2/5 391/2/5
f 393/2/5 373/2/5 392/2/5
f 394/2/5 373/2/5 393/2/5
f 395/2/5 373/2/5 394/2/5
f 396/2/5 394/2/5 393/2/5
f 397/2/5 394/2/5 396/2/5
f 398/2/5 394/2/5 397/2/5
f 399/2/5 394/2/5 398/2/5
f 400/2/5 394/2/5 399/2/5
f 401/2/5 394/2/5 400/2/5
f 402/2/5 400/2/5 399/2/5
f 403/2/5 400/2/5 402/2/5
f 404/2/5 402/2/5 399/2/5
f 405/2/5 402/2/5 404/2/5
f 406/2/5 402/2/5 405/2/5
f 407/2/5 402/2/5 406/2/5
f 408/2/5 406/2/5 405/2/5
f 409/2/5 406/2/5 408/2/5
f 410/2/5 406/2/5 409/2/5
f 411/2/5 406/2/5 410/2/5
f 412/2/5 410/2/5 409/2/5
f 413/2/5 410/2/5 412/2/5
f 414/2/5 410/2/5 413/2/5
f 415/2/5 410/2/5 414/2/5
f 416/2/5 410/2/5 415/2/5
f 417/2/5 410/2/5 416/2/5
f 418/2/5 416/2/5 415/2/5
f 419/2/5 416/2/5 418/2/5
f 420/2/5 416/2/5 419/2/5
f 421/2/5 416/2/5 420/2/5
f 422/2/5 420/2/5 419/2/5
f 423/2/5 420/2/5 422/2/5
f 424/1/6 425/1/6 426/1/6
f 426/1/6 425/1/6 427/1/6
f 427/1/6 425/1/6 428/1/6
f 426/2/6 427/2/6 429/2/6
f 426/2/6 429/2/6 431/2/6
f 429/2/6 430/2/6 431/2/6
f 431/2/6 430/2/6 432/2/6
f 432/2/6 430/2/6 433/2/6
f 433/2/6 430/2/6 434/2/6
f 434/2/6 430/2/6 435/2/6
f 435/2/6 436/2/6 437/2/6
f 434/2/6 435/2/6 437/2/6
f 437/2/6 436/2/6 438/2/6
f 438/2/6 436/2/6 439/2/6
f 439/2/6 436/2/6 440/2/6
f 440/2/6 436/2/6 441/2/6
f 441/2/6 436/2/6 442/2/6
f 442/2/6 436/2/6 443/2/6
f 443/2/6 436/2/6 444/2/6
f 444/2/6 436/2/6 445/2/6
f 445/2/6 446/2/6 447/2/6
f 444/2/6 445/2/6 447/2/6
f 447/2/6 446/2/6 448/2/6
f 448/2/6 446/2/6 449/2/6
f 448/2/6 449/2/6 451/2/6
f 449/2/6 450/2/6 451/2/6
f 451/2/6 450/2/6 452/2/6
f 452/2/6 450/2/6 453/2/6
f 453/2/6 450/2/6 454/2/6
f 454/2/6 450/2/6 455/2/6
f 455/2/6 450/2/6 456/2/6
f 456/2/6 450/2/6 457/2/6
f 457/2/6 458/2/6 459/2/6
f 456/2/6 457/2/6 459/2/6
f 459/2/6 458/2/6 460/2/6
f 460/2/6 458/2/6 461/2/6
f 461/2/6 458/2/6 462/2/6
f 462/2/6 458/2/6 463/2/6
f 463/2/6 458/2/6 464/2/6
f 464/2/6 458/2/6 465/2/6
f 465/2/6 458/2/6 466/2/6
f 466/2/6 458/2/6 467/2/6
f 467/2/6 458/2/6 468/2/6
f 468/2/6 458/2/6 469/2/6
f 469/2/6 458/2/6 470/2/6
f 470/2/6 458/2/6 471/2/6
f 471/2/6 458/2/6 472/2/6
f 472/2/6 458/2/6 473/2/6
f 473/2/6 458/2/6 474/2/6
f 474/2/6 458/2/6 475/2/6
f 475/2/6 458/2/6 476/2/6
f 476/2/6 458/2/6 477/2/6
f 477/2/6 458/2/6 478/2/6
f 478/2/6 458/2/6 479/2/6
f 479/2/6 458/2/6 480/2/6
f 478/2/6 479/2/6 481/2/6
f 481/2/6 479/2/6 482/2/6
f 482/2/6 479/2/6 483/2/6
f 483/2/6 479/2/6 484/2/6
f 484/2/6 479/2/6 485/2/6
f 485/2/6 479/2/6 486/2/6
f 484/2/6 485/2/6 487/2/6
f 487/2/6 485/2/6 488/2/6
f 484/2/6 487/2/6 489/2/6
f 489/2/6 487/2/6 490/2/6
f 490/2/6 487/2/6 491/2/6
f 491/2/6 487/2/6 492/2/6
f 490/2/6 491/2/6 493/2/6
f 493/2/6 491/2/6 494/2/6
f 494/2/6 491/2/6 495/2/6
f 495/2/6 491/2/6 496/2/6
f 494/2/6 495/2/6 497/2/6
f 497/2/6 495/2/6 498/2/6
f 498/2/6 495/2/6 499/2/6
f 499/2/6 495/2/6 500/2/6
f 500/2/6 495/2/6 501/2/6
f 501/2/6 495/2/6 502/2/6
f 500/2/6 501/2/6 503/2/6
f 503/2/6 501/2/6 504/2/6
f 504/2/6 501/2/6 505/2/6
f 505/2/6 501/2/6 506/2/6
f 504/2/6 505/2/6 507/2/6
f 507/2/6 505/2/6 508/2/6
